<?xml version="1.0" encoding="UTF-8"?>
<svg id="Capa_2" data-name="Capa 2" xmlns="http://www.w3.org/2000/svg" viewBox="0 0 437.99 22.06">
  <defs>
    <style>
      .cls-1 {
        fill: #1a1a1a;
      }
    </style>
  </defs>
  <g id="object">
    <g>
      <path class="cls-1" d="M222.67,11.03c0,2.03-1.65,3.68-3.68,3.68s-3.68-1.65-3.68-3.68,1.65-3.68,3.68-3.68,3.68,1.65,3.68,3.68Z"/>
      <g>
        <g>
          <path class="cls-1" d="M421.95,11.03c6.09,0,11.03-4.94,11.03-11.03,0,3.3,1.45,6.26,3.74,8.28,1.68,1.48,1.68,4.02,0,5.49-2.3,2.02-3.74,4.98-3.74,8.28,0-6.09-4.94-11.03-11.03-11.03Z"/>
          <path class="cls-1" d="M416.94,11.03c0,2.03,1.65,3.68,3.68,3.68s3.68-1.65,3.68-3.68-1.65-3.68-3.68-3.68-3.68,1.65-3.68,3.68Z"/>
        </g>
        <rect class="cls-1" x="216.66" y="10.25" width="203.55" height="1.56"/>
        <g>
          <rect class="cls-1" x="21.05" y="10.25" width="203.55" height="1.56"/>
          <g>
            <path class="cls-1" d="M5,22.06c0-3.3-1.45-6.26-3.74-8.28-1.68-1.48-1.68-4.02,0-5.49C3.56,6.26,5,3.3,5,0c0,6.09,4.94,11.03,11.03,11.03-6.09,0-11.03,4.94-11.03,11.03Z"/>
            <path class="cls-1" d="M21.05,11.03c0,2.03-1.65,3.68-3.68,3.68s-3.68-1.65-3.68-3.68,1.65-3.68,3.68-3.68,3.68,1.65,3.68,3.68Z"/>
          </g>
        </g>
      </g>
    </g>
  </g>
</svg>